<?xml version="1.0" encoding="utf-8"?>
<!-- Svg Vector Icons : http://www.onlinewebfonts.com/icon -->
<!DOCTYPE svg PUBLIC "-//W3C//DTD SVG 1.1//EN" "http://www.w3.org/Graphics/SVG/1.1/DTD/svg11.dtd">
<svg version="1.1" xmlns="http://www.w3.org/2000/svg" xmlns:xlink="http://www.w3.org/1999/xlink" x="0px" y="0px" viewBox="0 0 1000 1000" enable-background="new 0 0 1000 1000" xml:space="preserve">
<metadata> Svg Vector Icons : http://www.onlinewebfonts.com/icon </metadata>
<g><path d="M340.3,281.8l385,385L674,718l-385-385L340.3,281.8L340.3,281.8z"/><path d="M674.1,281.8l51.3,51.3l-385,385l-51.3-51.3L674.1,281.8L674.1,281.8z"/><path d="M500,990C229.8,990,10,770.2,10,500S229.8,10,500,10S990,229.8,990,500S770.2,990,500,990z M500,82.5C269.8,82.5,82.5,269.7,82.5,500S269.8,917.4,500,917.4S917.5,730.2,917.5,500S730.2,82.5,500,82.5L500,82.5z"/></g>
</svg>