<?xml version="1.0" encoding="utf-8"?>
<!-- Svg Vector Icons : http://www.onlinewebfonts.com/icon -->
<!DOCTYPE svg PUBLIC "-//W3C//DTD SVG 1.1//EN" "http://www.w3.org/Graphics/SVG/1.1/DTD/svg11.dtd">
<svg version="1.1" xmlns="http://www.w3.org/2000/svg" xmlns:xlink="http://www.w3.org/1999/xlink" x="0px" y="0px" viewBox="0 0 1000 1000" enable-background="new 0 0 1000 1000" xml:space="preserve">
<metadata> Svg Vector Icons : http://www.onlinewebfonts.com/icon </metadata>
<g><g transform="translate(0.000000,512.000000) scale(0.100000,-0.100000)"><path d="M4563.2,5002.9c-902.4-80.5-1781.8-421.5-2527-977.1c-103.5-78.6-325.7-279.7-494.3-448.3c-440.6-440.7-695.5-793.2-948.3-1320C302.3,1655.9,158.6,1113.7,110.7,429.8c-46-641.8,57.5-1377.5,281.6-1988.7C493.9-1838.6,743-2331,907.7-2578.1c482.8-728,1139.9-1306.6,1917.8-1689.8c620.7-306.5,1159.1-452.1,1862.2-502c643.7-45.9,1383.3,57.5,1990.6,281.7c275.9,101.5,772.1,350.6,1003.9,505.8c302.7,201.2,576.7,431.1,833.4,693.5c597.8,615,1021.2,1364.1,1226.2,2170.7c86.2,344.8,122.6,561.3,147.5,925.4c46,643.7-57.5,1379.4-281.6,1990.6c-101.5,279.7-350.6,772.1-515.4,1019.2c-362.1,544.1-850.6,1032.7-1396.7,1396.7c-245.2,162.9-739.5,411.9-1017.3,513.4C6030.7,4964.6,5258.6,5064.2,4563.2,5002.9z M5333.3,3590.9c151.4-70.9,310.4-216.5,383.2-348.7c99.6-183.9,107.3-268.2,107.3-1325.8V943.2h973.3c1057.6,0,1141.9-7.7,1325.8-107.3c132.2-72.8,277.8-231.8,350.6-385.1c57.5-120.7,61.3-145.6,61.3-331.4c0-185.8-3.8-210.7-61.3-331.5c-120.7-254.8-350.6-431.1-618.8-473.2c-72.8-11.5-525-19.2-1076.7-19.2h-954.1v-952.2c0-553.7-7.7-1005.8-19.2-1078.6c-42.1-268.2-218.4-498.1-473.2-618.8c-120.7-57.5-145.6-61.3-331.4-61.3s-210.7,3.8-331.4,61.3c-153.3,72.8-312.3,218.4-385.1,350.6c-99.6,183.9-107.3,268.2-107.3,1327.7v971.4h-971.3c-1059.5,0-1143.8,7.7-1327.7,107.3c-132.2,72.8-277.8,231.8-350.6,385.1c-57.5,120.7-61.3,145.6-61.3,331.5c0,185.8,3.8,210.7,61.3,331.4c72.8,153.3,218.4,312.3,350.6,385.1c183.9,99.6,268.2,107.3,1327.7,107.3h971.3v973.3c0,1057.6,7.7,1141.8,107.3,1325.8c95.8,178.2,323.8,352.5,519.2,402.3c40.2,9.6,147.5,15.3,239.5,11.5C5178.2,3650.3,5229.9,3638.8,5333.3,3590.9z"/></g></g>
</svg>