<?xml version="1.0" encoding="utf-8"?>
<!-- Svg Vector Icons : http://www.onlinewebfonts.com/icon -->
<!DOCTYPE svg PUBLIC "-//W3C//DTD SVG 1.1//EN" "http://www.w3.org/Graphics/SVG/1.1/DTD/svg11.dtd">
<svg version="1.1" xmlns="http://www.w3.org/2000/svg" xmlns:xlink="http://www.w3.org/1999/xlink" x="0px" y="0px" viewBox="0 0 1000 1000" enable-background="new 0 0 1000 1000" xml:space="preserve">
<metadata> Svg Vector Icons : http://www.onlinewebfonts.com/icon </metadata>
<g><path d="M147.7,485.8l308.7,308.7c24.1,24.1,63.2,24.1,87.3,0l308.7-308.7c24.1-24.1,24.1-63.2,0-87.3c-24.1-24.1-63.2-24.1-87.3,0L561.8,601.7v-530c0-34.1-27.6-61.7-61.8-61.7c-34.1,0-61.8,27.6-61.8,61.7v530L235,398.5c-12-12.1-27.9-18.1-43.6-18.1c-15.8,0-31.7,6-43.7,18.1C123.6,422.6,123.6,461.7,147.7,485.8"/><path d="M963,924.4c0,36.2-29.3,65.6-65.6,65.6H102.6C66.3,990,37,960.6,37,924.4l0,0c0-36.3,29.3-65.7,65.6-65.7h794.8C933.7,858.8,963,888.2,963,924.4L963,924.4z"/></g>
</svg>