<?xml version="1.0" encoding="utf-8"?>
<!-- Svg Vector Icons : http://www.onlinewebfonts.com/icon -->
<!DOCTYPE svg PUBLIC "-//W3C//DTD SVG 1.1//EN" "http://www.w3.org/Graphics/SVG/1.1/DTD/svg11.dtd">
<svg

        version="1.1"
        xmlns="http://www.w3.org/2000/svg"
        xmlns:xlink="http://www.w3.org/1999/xlink"
        x="0px"
        y="0px"
        viewBox="0 0 1000 1000"
        enable-background="new 0 0 1000 1000"
        xml:space="preserve">

<metadata> Svg Vector Icons : http://www.onlinewebfonts.com/icon </metadata>
<g>
    <path d="M500.9,163.9H71.1v764.6h703.5V538.9l61.2-58.4v447.9c0,33.8-27.4,61.2-61.2,61.2H71.1c-33.8,0-61.1-27.4-61.1-61.2V163.8c0-33.8,27.4-61.2,61.1-61.2h490l1.6,1.6L500.9,163.9z"/><path d="M851.2,71.5c16.4,0,32.2,7.5,48.2,22.8c19.2,18.4,29,36.1,29.3,52.6c0.3,17-9.5,35.8-28.8,55.9c-17,17.6-150.3,149.3-396.1,391.4L485,612.8c-28.2,8.7-95.7,30.4-146.7,46.8c16.4-54.2,36.2-119.8,44.9-150.8c52.5-52.5,399.9-399.3,413.1-412.3C798.9,94.1,822.3,71.5,851.2,71.5 M851.2,10.4c-50.9,0-88,32.8-98.1,42.9c-14.3,14.1-419.8,419-419.8,419c-3.2,3.2-5.5,7.2-6.7,11.6c-11,40.6-66,220.8-66.6,222.5c-2.9,9.3-0.3,19.3,6.5,26.1c4.9,4.9,11.4,7.5,18.1,7.5c2.6,0,5.3-0.4,7.9-1.2c1.9-0.6,187.8-60.7,218.4-69.9c4.1-1.2,7.7-3.3,10.8-6.3c19.3-19.1,391.9-386,422.1-417.1c31.2-32.2,46.7-65.6,46.1-99.5c-0.6-33.5-16.9-65.7-48.2-95.7C914.2,23.8,883.7,10.4,851.2,10.4L851.2,10.4z"/>
</g>
</svg>