<?xml version="1.0" encoding="utf-8"?>
<!-- Svg Vector Icons : http://www.onlinewebfonts.com/icon -->
<!DOCTYPE svg PUBLIC "-//W3C//DTD SVG 1.1//EN" "http://www.w3.org/Graphics/SVG/1.1/DTD/svg11.dtd">
<svg version="1.1" xmlns="http://www.w3.org/2000/svg" xmlns:xlink="http://www.w3.org/1999/xlink" x="0px" y="0px" viewBox="0 0 1000 1000" enable-background="new 0 0 1000 1000" xml:space="preserve">
<metadata> Svg Vector Icons : http://www.onlinewebfonts.com/icon </metadata>
<g><g transform="translate(0.000000,511.000000) scale(0.100000,-0.100000)"><path d="M165.4,4823.1c-28.7-6.4-54.2-31.9-57.4-57.4c0-25.5,0-640.9,0-1367.9s0-1438,0-1578.3l3.2-255.1h1626.2h1626.2v1626.2v1626.2l-245.5,3.2C1558.8,4829.5,206.8,4829.5,165.4,4823.1z M2693.9,3206.5V2234h-972.5H748.9v972.5V4179h972.5h972.5V3206.5z"/><path d="M1408.9,3519c-12.8-9.6-22.3-162.6-22.3-334.8v-312.5h334.8h334.8v334.8v334.8h-312.5C1571.5,3541.3,1418.5,3531.7,1408.9,3519z"/><path d="M4023.5,4829.5c-12.8-12.8-22.3-1119.2-22.3-2458.4V-61.8H4336h334.8v2439.2v2439.2h-245.5c-137.1,0-277.4,9.6-312.5,19.2C4077.7,4845.4,4036.3,4842.2,4023.5,4829.5z"/><path d="M6628.6,4819.9c-6.4-6.4-12.8-743-12.8-1635.8V1564.4h1642.1H9900l-6.4,1629.4l-9.6,1629.3l-1619.8,6.4C7371.5,4829.5,6634.9,4826.3,6628.6,4819.9z M9230.4,3206.5V2234h-972.5h-972.5v972.5V4179h972.5h972.5V3206.5z"/><path d="M7945.4,3522.2c-12.8-12.8-22.3-165.8-22.3-338v-312.5h334.8h338l-9.6,328.4l-9.6,325.2l-302.9,9.6C8104.9,3538.1,7958.2,3534.9,7945.4,3522.2z"/><path d="M5308.5,1245.5V-61.8h334.8h334.8v1307.3v1307.3h-334.8h-334.8V1245.5z"/><path d="M104.8,904.3c-6.4-15.9-6.4-165.8,0-334.8l12.8-312.5h1288.2h1285l9.6-484.7l9.6-487.8l328.4-9.6l325.2-9.6V97.6v829h-1623C844.5,926.7,111.1,917.1,104.8,904.3z"/><path d="M6638.1,907.6c-12.8-12.8-22.3-385.8-22.3-832.2v-806.7H5308.5H4001.2v-1945v-1945H4336h334.8v1626.2v1626.2h318.9h318.9v-813.1v-813.1h334.8h334.8v813.1v813.1h1307.3h1307.3v-334.8v-334.8h318.8h318.9V-3330v-1291.4h334.8H9900v1626.2v1626.2h-334.8h-334.8v1147.9V926.7h-318.9h-318.8l-6.4-819.5l-9.6-822.6l-644.1-9.6l-647.3-6.4L7279,88.1l-9.6,822.6l-302.9,9.6C6797.5,923.5,6650.8,920.3,6638.1,907.6z"/><path d="M108-1512.6c0-79.7,0-739.7,0-1466.7s0-1393.4,0-1482.7l3.2-159.4h1626.2h1626.2v1626.2v1626.2H1737.3H111.1L108-1512.6z M2693.9-3011.2v-972.5h-972.5H748.9v972.5v972.5h972.5h972.5V-3011.2z"/><path d="M1393-3001.6l9.6-328.4h318.9h318.9l9.6,328.4l9.6,325.2h-338h-338L1393-3001.6z"/><path d="M6615.8-3330v-1291.4h334.8h334.8V-3330v1291.4h-334.8h-334.8V-3330z"/><path d="M7923.1-3330v-653.7h334.8h334.8v653.7v653.7h-334.8h-334.8V-3330z"/></g></g>
</svg>