<?xml version="1.0" encoding="UTF-8" standalone="no"?>
<svg
   xmlns:dc="http://purl.org/dc/elements/1.1/"
   xmlns:cc="http://creativecommons.org/ns#"
   xmlns:rdf="http://www.w3.org/1999/02/22-rdf-syntax-ns#"
   xmlns:svg="http://www.w3.org/2000/svg"
   xmlns="http://www.w3.org/2000/svg"
   xmlns:sodipodi="http://sodipodi.sourceforge.net/DTD/sodipodi-0.dtd"
   xmlns:inkscape="http://www.inkscape.org/namespaces/inkscape"
   height="100%"
   id="homebutton"
   style="enable-background:new 0 0 16 16;"
   version="1.1"
   viewBox="0 0 16 16"
   width="50px"
   xml:space="preserve"
   sodipodi:docname="homewhite.svg"
   inkscape:version="0.92.1 r15371"><metadata
     id="metadata16"><rdf:RDF><cc:Work
         rdf:about=""><dc:format>image/svg+xml</dc:format><dc:type
           rdf:resource="http://purl.org/dc/dcmitype/StillImage" /><dc:title></dc:title></cc:Work></rdf:RDF></metadata><defs
     id="defs14" /><sodipodi:namedview
     pagecolor="#ffffff"
     bordercolor="#666666"
     borderopacity="1"
     objecttolerance="10"
     gridtolerance="10"
     guidetolerance="10"
     inkscape:pageopacity="0"
     inkscape:pageshadow="2"
     inkscape:window-width="1263"
     inkscape:window-height="1008"
     id="namedview12"
     showgrid="false"
     inkscape:zoom="35.3"
     inkscape:cx="20.793201"
     inkscape:cy="8"
     inkscape:window-x="208"
     inkscape:window-y="0"
     inkscape:window-maximized="0"
     inkscape:current-layer="homebutton" /><path
     id="homebuttonpath"
     d="M 15.45,7 14,5.551 V 2 C 14,1.45 13.55,1 13,1 H 12 C 11.45,1 11,1.45 11,2 V 2.553 L 9,0.555 C 8.727,0.297 8.477,0 8,0 7.523,0 7.273,0.297 7,0.555 L 0.55,7 C 0.238,7.325 0,7.562 0,8 0,8.563 0.432,9 1,9 h 1 v 6 c 0,0.55 0.45,1 1,1 h 3 v -5 c 0,-0.55 0.45,-1 1,-1 h 2 c 0.55,0 1,0.45 1,1 v 5 h 3 c 0.55,0 1,-0.45 1,-1 V 9 h 1 C 15.568,9 16,8.563 16,8 16,7.562 15.762,7.325 15.45,7 Z"
     style="fill:#ffffff"
     inkscape:connector-curvature="0" /></svg>