<?xml version="1.0" encoding="utf-8"?>
<!-- Svg Vector Icons : http://www.onlinewebfonts.com/icon -->
<!DOCTYPE svg PUBLIC "-//W3C//DTD SVG 1.1//EN" "http://www.w3.org/Graphics/SVG/1.1/DTD/svg11.dtd">
<svg    height="90%"
        width="50px"
        version="1.1"
        xmlns="http://www.w3.org/2000/svg"
        xmlns:xlink="http://www.w3.org/1999/xlink"
        x="0px"
        y="0px"
        viewBox="0 0 1000 1000"
        enable-background="new 0 0 1000 1000"
        xml:space="preserve">
<metadata> Svg Vector Icons : http://www.onlinewebfonts.com/icon </metadata>
<g>
    <path d="M71.3,10C37.5,10,10,37.5,10,71.3v1.9v148.2c0,17.4,14.2,31.6,31.6,31.6l0,0c17.4,0,31.6-14.2,31.6-31.6V103.8c0-16.9,13.7-30.6,30.6-30.6h117.6c17.4,0,31.6-14.2,31.6-31.6l0,0c0-17.4-14.2-31.6-31.6-31.6H73.2H71.3z"/><path d="M10,928.8c0,33.8,27.5,61.3,61.3,61.3h1.9h148.2c17.4,0,31.6-14.2,31.6-31.6l0,0c0-17.4-14.2-31.6-31.6-31.6H103.8c-16.9,0-30.6-13.7-30.6-30.6V778.6c0-17.4-14.2-31.6-31.6-31.6l0,0C24.2,747,10,761.2,10,778.6v148.2V928.8z"/><path d="M928.8,990c33.8,0,61.3-27.5,61.3-61.3v-1.9V778.6c0-17.4-14.2-31.6-31.6-31.6l0,0c-17.4,0-31.6,14.2-31.6,31.6v117.6c0,16.9-13.7,30.6-30.6,30.6H778.6c-17.4,0-31.6,14.2-31.6,31.6l0,0c0,17.4,14.2,31.6,31.6,31.6h148.2H928.8z"/><path d="M926.8,10H778.6C761.2,10,747,24.2,747,41.6l0,0c0,17.4,14.2,31.6,31.6,31.6h117.6c16.9,0,30.6,13.7,30.6,30.6v117.6c0,17.4,14.2,31.6,31.6,31.6l0,0c17.4,0,31.6-14.2,31.6-31.6V73.2v-1.9c0-33.8-27.5-61.3-61.3-61.3H926.8z"/><path d="M193.8,255v490c0,33.8,27.5,61.3,61.3,61.3h490c33.8,0,61.3-27.5,61.3-61.3V255c0-33.8-27.5-61.3-61.3-61.3H255C221.2,193.8,193.8,221.1,193.8,255z M716.4,747H283.6c-16.9,0-30.6-13.7-30.6-30.6V283.6c0-16.9,13.7-30.6,30.6-30.6h432.8c16.9,0,30.6,13.7,30.6,30.6v432.8C747,733.2,733.3,747,716.4,747z"/>
</g>
</svg>
