<?xml version="1.0" encoding="utf-8"?>
<!-- Svg Vector Icons : http://www.onlinewebfonts.com/icon -->
<!DOCTYPE svg PUBLIC "-//W3C//DTD SVG 1.1//EN" "http://www.w3.org/Graphics/SVG/1.1/DTD/svg11.dtd">
<svg version="1.1" xmlns="http://www.w3.org/2000/svg" xmlns:xlink="http://www.w3.org/1999/xlink" x="0px" y="0px" viewBox="0 0 1000 1000" enable-background="new 0 0 1000 1000" xml:space="preserve">
<metadata> Svg Vector Icons : http://www.onlinewebfonts.com/icon </metadata>
<g><g transform="matrix(1 0 0 -1 0 1536)"><path d="M255,627.7h490v245H255V627.7z M826.7,627.7h81.7v571.7c0,6-2.1,14.1-6.4,24.6c-4.3,10.4-8.5,17.8-12.8,22l-179.3,179.3c-4.3,4.3-11.5,8.5-21.7,12.8c-10.2,4.3-18.5,6.4-24.9,6.4v-265.4c0-17-6-31.5-17.9-43.4c-11.9-11.9-26.4-17.9-43.4-17.9H234.6c-17,0-31.5,6-43.4,17.9c-11.9,11.9-17.9,26.4-17.9,43.4v265.4H91.7V627.7h81.7v265.4c0,17,6,31.5,17.9,43.4c11.9,11.9,26.4,17.9,43.4,17.9h530.8c17,0,31.5-6,43.4-17.9c11.9-11.9,17.9-26.4,17.9-43.4V627.7z M581.7,1219.7v204.2c0,5.5-2,10.3-6.1,14.4c-4,4-8.8,6.1-14.4,6.1H438.8c-5.5,0-10.3-2-14.4-6.1c-4-4-6.1-8.8-6.1-14.4v-204.2c0-5.5,2-10.3,6.1-14.4c4-4,8.8-6.1,14.4-6.1h122.5c5.5,0,10.3,2,14.4,6.1C579.6,1209.4,581.7,1214.2,581.7,1219.7z M990,1199.3V607.2c0-17-6-31.5-17.9-43.4C960.2,552,945.8,546,928.8,546H71.3c-17,0-31.5,6-43.4,17.9C16,575.8,10,590.2,10,607.2v857.5c0,17,6,31.5,17.9,43.4c11.9,11.9,26.4,17.9,43.4,17.9h592.1c17,0,35.7-4.3,56.1-12.8c20.4-8.5,36.6-18.7,48.5-30.6L946.6,1304c11.9-11.9,22.1-28.1,30.6-48.5C985.7,1235.1,990,1216.3,990,1199.3z"/></g></g>
</svg>